PathFileType	4	(X/Y/Z)	C:/Users/opensim2020/Desktop/walking_exp_matlab/subject02_walking04_straight_03.trc																																																																																																																												
DataRate	CameraRate	NumFrames	NumMarkers	Units	OrigDataRate	OrigDataStartFrame	OrigNumFrames																																																																																																																								
100	100	5	42	mm	100	2400	222																																																																																																																								
Frame#	Time	LFHD			RFHD			LBHD			RBHD			C7			T10			CLAV			STRN			RBAK			LSHO			LUPA			LELB			LFRM			LWRA			LWRB			LFIN			RSHO			RUPA			RELB			RFRM			RWRA			RWRB			RFIN			LASI			RASI			LPSI			RPSI			LTHI			LKNE			LTIB			LANK			LHEE			LTOE			RTHI			RKNE			RTIB			RANK			RHEE			RTOE			*39			*40			*41		
		X1	Y1	Z1	X2	Y2	Z2	X3	Y3	Z3	X4	Y4	Z4	X5	Y5	Z5	X6	Y6	Z6	X7	Y7	Z7	X8	Y8	Z8	X9	Y9	Z9	X10	Y10	Z10	X11	Y11	Z11	X12	Y12	Z12	X13	Y13	Z13	X14	Y14	Z14	X15	Y15	Z15	X16	Y16	Z16	X17	Y17	Z17	X18	Y18	Z18	X19	Y19	Z19	X20	Y20	Z20	X21	Y21	Z21	X22	Y22	Z22	X23	Y23	Z23	X24	Y24	Z24	X25	Y25	Z25	X26	Y26	Z26	X27	Y27	Z27	X28	Y28	Z28	X29	Y29	Z29	X30	Y30	Z30	X31	Y31	Z31	X32	Y32	Z32	X33	Y33	Z33	X34	Y34	Z34	X35	Y35	Z35	X36	Y36	Z36	X37	Y37	Z37	X38	Y38	Z38	X39	Y39	Z39	X40	Y40	Z40	X41	Y41	Z41	X42	Y42	Z42
																																																																																																																															
195	1.94	824.64789	1710.44263	-1092.23438	786.67493	1685.34741	-954.63824	695.28815	1648.26331	-1138.54529	644.82172	1623.30542	-1005.45941	611.98224	1502.93506	-1075.65479	558.19397	1225.28674	-1068.91016	750.84204	1430.9801	-1075.11169	801.49585	1261.5083	-1066.77185	548.19623	1325.4574	-1018.18427	699.49628	1476.87512	-1248.1814	727.84778	1285.4325	-1342.93054	769.44702	1150.90637	-1370.52222	849.22949	1042.8468	-1377.97937	962.10291	973.46234	-1339.64307	924.7121	946.36243	-1372.1814	978.82471	910.1825	-1377.27393	671.56342	1463.00183	-883.06781	612.63757	1280.86169	-804.21545	608.4696	1136.43665	-779.40051	619.99921	1018.58398	-749.75525	657.37622	886.9693	-753.74371	605.3822	890.18787	-730.01794	634.62585	824.79724	-718.04059	793.09967	965.69244	-1209.3092	808.73785	960.1593	-950.71844	586.45728	1003.64136	-1111.67126	587.341	1001.50861	-998.3761	667.47272	662.41846	-1251.9198	592.17389	473.78397	-1220.32312	466.31476	323.39816	-1213.69409	386.9538	110.83292	-1179.59351	347.12656	96.5645	-1128.0647	527.3172	35.20195	-1191.17615	805.64874	661.64154	-870.09271	870.66577	465.05435	-917.74731	875.38989	276.5217	-927.43427	912.64728	90.65948	-965.42719	902.46759	40.56084	-1032.35571	1061.16296	54.53434	-917.73511	708.61139	1780.71716	-1026.47583	2845.7688	1033.94958	-3357.33911	NaN	NaN	NaN
196	1.95	834.67499	1710.8241	-1088.7655	796.13147	1685.54041	-951.4176	705.59979	1648.67078	-1135.71545	654.60187	1623.4054	-1002.88776	621.95392	1503.12805	-1073.08862	568.65472	1225.17786	-1067.03894	760.33533	1431.24585	-1072.55103	811.80658	1262.01953	-1064.29102	558.39807	1325.35522	-1015.88873	709.19141	1476.97864	-1246.06519	736.0238	1284.39819	-1339.54675	775.22589	1149.27917	-1367.00244	852.75934	1039.70044	-1374.83899	964.51196	968.06726	-1337.28748	926.31799	941.71759	-1369.59204	979.6264	904.2735	-1374.72693	681.40582	1462.4917	-880.38776	622.78168	1280.19006	-801.80261	618.23914	1135.59424	-777.23169	629.76447	1017.87909	-747.5238	666.94733	886.3559	-751.40265	615.06744	889.49255	-727.92175	644.25885	824.2843	-715.62042	805.12292	965.17078	-1206.69543	819.76453	960.75549	-948.15295	598.2226	1003.23212	-1109.46765	598.88861	1002.11401	-995.65076	679.10187	662.54004	-1250.24353	603.76721	474.47208	-1219.80347	474.51413	327.05643	-1213.41663	390.15524	116.26188	-1180.58777	350.59637	103.5279	-1129.1405	527.6886	35.20677	-1191.47742	814.57159	662.70581	-868.53949	882.64874	467.16684	-915.47644	885.92651	278.5253	-921.49225	915.52783	90.61483	-964.46387	903.11334	41.02492	-1031.64392	1062.56641	51.49164	-917.65662	718.28131	1780.95789	-1023.52173	2845.08008	1033.77356	-3360.21875	NaN	NaN	NaN
197	1.96	844.77802	1711.33081	-1085.27136	805.62531	1685.83203	-948.07416	715.82965	1649.27283	-1132.98059	664.24835	1623.87891	-1000.37018	632.0072	1503.78906	-1070.651	579.07611	1225.27393	-1065.31091	770.16217	1431.85083	-1070.06616	822.20776	1262.92419	-1061.7583	568.61414	1325.61389	-1013.72601	718.9295	1477.4552	-1244.03113	743.82898	1283.79297	-1336.61414	780.99335	1148.00537	-1363.2699	855.90027	1036.66724	-1371.55225	966.31348	962.58173	-1334.86035	927.28278	937.09937	-1366.81226	979.65967	898.33685	-1372.2417	691.29663	1462.401	-877.66852	633.38782	1279.97095	-799.08661	628.77789	1135.32239	-774.79889	639.95532	1017.54883	-745.18518	677.32202	886.12061	-748.85889	625.14319	889.12366	-725.93115	654.39972	824.09723	-713.19122	816.92279	964.81903	-1203.69202	830.86212	961.69409	-945.29883	610.17737	1003.70441	-1107.44043	610.20789	1003.75702	-993.0788	691.27643	662.75909	-1248.29175	616.69525	475.32788	-1219.44287	483.67819	331.41156	-1213.5083	394.14349	122.43378	-1181.86072	354.923	111.21542	-1130.27747	527.9903	35.03288	-1191.81396	824.34088	664.07813	-866.89331	894.86176	469.39899	-913.81488	895.88373	280.37436	-917.72797	917.11682	91.56455	-964.42035	903.07397	41.23778	-1031.30847	1064.06848	49.66673	-919.90265	728.13617	1781.45947	-1020.37299	2845.05981	1033.89856	-3360.17969	NaN	NaN	NaN
198	1.97	854.87744	1711.84375	-1081.62817	814.70642	1685.97974	-944.88776	726.13452	1650.14978	-1130.17029	673.55164	1624.57263	-997.8205	641.96851	1504.69983	-1068.29272	589.56329	1225.56274	-1063.68176	779.97375	1432.72144	-1067.62268	832.64581	1264.06055	-1059.16309	578.89417	1325.98926	-1011.20898	728.76709	1478.13586	-1241.96094	751.50354	1283.51929	-1333.45068	786.76105	1147.18054	-1359.41138	858.67554	1034.00342	-1368.12036	967.4082	957.10864	-1332.35095	927.56177	932.72278	-1363.99487	978.80499	892.53619	-1369.70264	701.17139	1462.70593	-875.09576	643.50067	1279.89063	-796.72101	639.32703	1135.29895	-772.60388	650.43933	1017.55298	-743.00958	688.42285	886.30249	-746.05426	635.54285	889.17065	-723.88513	664.89093	824.23718	-710.83557	829.04126	964.95642	-1200.56665	841.75439	962.88885	-942.20538	622.23212	1004.75037	-1105.67102	621.37872	1005.91223	-990.58258	704.1333	663.15393	-1246.43347	631.07672	476.17911	-1219.37537	494.29016	336.04941	-1213.51453	399.16229	129.37483	-1183.24719	360.42166	119.93168	-1131.39343	528.45197	35.1858	-1192.25317	835.18475	665.58478	-865.36469	905.9151	470.74374	-912.6347	904.30054	281.58401	-916.54755	919.44086	92.77588	-964.17615	903.74298	41.5645	-1030.7832	1066.45691	48.35752	-921.98773	738.03125	1782.13354	-1017.29962	2845.15674	1033.80481	-3360.25098	NaN	NaN	NaN
199	1.98	864.96399	1712.56775	-1077.9574	824.12653	1686.66528	-941.40082	736.39874	1651.16309	-1127.38672	683.37018	1625.3855	-995.37787	651.69269	1505.63342	-1066.05786	600.03259	1225.98206	-1062.06372	789.77307	1433.77185	-1065.172	843.12561	1265.47693	-1056.50244	588.99042	1326.41077	-1008.88019	738.78448	1479.13086	-1239.74548	759.16449	1283.63452	-1330.30054	792.46741	1146.76843	-1355.45386	861.13538	1031.70813	-1364.60046	967.85602	951.70886	-1329.71106	927.01367	928.40222	-1361.08691	977.07947	886.8017	-1367.14014	710.80719	1463.46265	-872.71515	654.39685	1280.35217	-794.03485	650.07483	1135.66858	-770.54822	661.39105	1018.05267	-740.83093	699.1908	886.78668	-743.72205	646.62634	889.63397	-721.66528	675.79572	824.63763	-708.59503	840.55865	965.1416	-1196.83984	852.50208	964.41754	-938.86261	634.12653	1005.98969	-1104.00623	632.29309	1008.14514	-988.2854	717.57544	663.29724	-1244.70386	646.87842	476.81683	-1219.79944	506.41934	341.01257	-1213.5542	405.22424	136.98468	-1184.55908	367.58649	129.3288	-1131.93201	528.91406	35.05994	-1192.33704	847.02588	667.1142	-863.1123	915.59515	471.23404	-911.46686	910.72388	282.04691	-916.12659	921.67334	92.97447	-963.95251	904.18835	41.83424	-1030.56458	1068.06628	47.31075	-922.69482	747.90436	1782.90735	-1014.11877	2845.08447	1033.79785	-3360.19922	NaN	NaN	NaN
